<svg width="512" height="512" viewBox="0 0 512 512" fill="none" xmlns="http://www.w3.org/2000/svg">
<g clip-path="url(#clip0_120_210)">
<path d="M292.665 337.576L242.75 306.64L261.093 277.055C251.691 267.575 243.754 256.552 237.674 244.318L203.712 252.265L190.359 195.048L224.307 187.102C224.336 173.592 226.515 160.254 230.819 147.448L201.147 129.049L232.11 79.1603L261.77 97.5473C271.327 88.0456 282.314 80.1284 294.419 74.1425L286.461 40.1734L343.658 26.775L351.582 60.6422C365.422 60.6713 378.797 62.9594 391.324 67.1158L409.667 37.565L459.566 68.5255L441.237 98.0617C450.639 107.549 458.583 118.562 464.664 130.796L498.587 122.837L512 180.053L478.031 188.027C478.016 201.537 475.83 214.874 471.518 227.659L501.198 246.053L470.257 295.983L440.563 277.584C431.017 287.076 420.045 294.995 407.95 301.003L415.908 334.977L358.706 348.373L350.762 314.469C336.929 314.44 323.548 312.145 311.021 307.986L292.665 337.576ZM417.553 172.02C410.281 141.013 383.026 119.351 351.26 119.351C346.031 119.351 340.761 119.952 335.605 121.158C317.863 125.302 302.827 136.139 293.226 151.59C283.617 167.051 280.618 185.35 284.779 203.092C292.051 234.091 319.321 255.756 351.087 255.756C356.314 255.756 361.572 255.14 366.742 253.936C384.47 249.814 399.506 238.971 409.122 223.51C418.728 208.039 421.712 189.747 417.553 172.02ZM94.1241 375.495L81.1891 367.478L104.38 330.018L117.362 338.051C121.033 334.81 125.005 331.939 129.307 329.445L125.82 314.617L168.718 304.548L172.159 319.249C177.179 319.553 182.056 320.353 186.817 321.617L194.763 308.826L232.195 332.061L224.362 344.651C227.619 348.378 230.414 352.508 232.94 356.868L247.566 353.471L257.633 396.352L242.832 399.81C242.517 404.742 241.743 409.564 240.464 414.351L253.355 422.355L230.123 459.787L217.243 451.785C213.514 455.07 209.528 457.921 205.255 460.389L208.727 475.19L165.828 485.232L162.402 470.546C157.382 470.228 152.505 469.456 147.745 468.192L139.801 480.998L102.367 457.78L110.199 445.158C106.914 441.432 104.118 437.302 101.624 432.942L86.9954 436.353L76.9283 393.457L91.7438 390C92.0738 385.033 92.8478 380.212 94.1241 375.495ZM136.103 402.214C140.077 419.138 157.314 430.066 174.568 426.048C182.859 424.083 189.944 419.022 194.433 411.764C198.951 404.536 200.329 395.959 198.407 387.612C194.994 373.056 182.185 362.858 167.316 362.858C164.848 362.858 162.412 363.176 160 363.72C142.785 367.823 132.087 385.033 136.103 402.214ZM26.8188 232.114L6.71384 236.811L0 208.221L20.0492 203.531C19.906 195.398 21.2405 187.34 23.9799 179.702L6.45178 168.817L21.9563 143.869L39.4699 154.734C45.1186 148.918 51.7474 144.143 59.0896 140.649L54.3849 120.607L82.9822 113.896L87.6578 133.894C88.0048 133.894 88.376 133.838 88.7327 133.838C96.7228 133.838 104.424 135.202 111.609 137.733L122.353 120.358L147.32 135.816L136.452 153.385C142.186 158.978 146.978 165.539 150.491 172.99L170.613 168.286L177.296 196.883L157.275 201.566C157.419 209.704 156.087 217.75 153.347 225.402L170.844 236.272L155.339 261.206L137.857 250.358C132.192 256.171 125.58 260.956 118.237 264.447L122.913 284.499L94.3449 291.213L89.6426 271.19C89.2835 271.19 88.9244 271.246 88.5798 271.246C80.6068 271.246 72.9176 269.882 65.7185 267.359L54.9478 284.756L30.0095 269.237L40.8797 251.704C35.1364 246.138 30.3613 239.555 26.8188 232.114ZM126.953 193.59C122.736 175.693 107.047 163.21 88.7157 163.21C85.69 163.21 82.6498 163.561 79.6799 164.251C69.4406 166.66 60.7784 172.884 55.2438 181.803C49.7068 190.717 47.9574 201.272 50.3668 211.511C55.2438 232.322 76.4989 245.803 97.6351 240.79C107.848 238.395 116.537 232.157 122.074 223.243C127.613 214.328 129.333 203.796 126.953 193.59Z" fill="#0046BB"/>
</g>
<defs>
<clipPath id="clip0_120_210">
<rect width="512" height="512" fill="white"/>
</clipPath>
</defs>
</svg>
