<svg width="830" height="600" viewBox="0 0 830 600" fill="none" xmlns="http://www.w3.org/2000/svg">
<path d="M733.298 105.071C759.594 152.57 752.356 212.848 719.242 271.967C686.131 331.078 627.186 388.953 550.239 431.552C473.292 474.151 392.954 493.385 325.283 490.067C257.602 486.75 202.676 460.887 176.379 413.387C150.083 365.888 157.321 305.61 190.436 246.491C223.546 187.38 282.492 129.505 359.439 86.906C436.386 44.3072 516.724 25.0735 584.395 28.3908C652.075 31.7085 707.002 57.5715 733.298 105.071Z" stroke="white"/>
<path d="M653.298 140.071C679.594 187.57 672.356 247.848 639.242 306.967C606.131 366.078 547.186 423.953 470.239 466.552C393.292 509.151 312.954 528.385 245.283 525.067C177.602 521.75 122.676 495.887 96.3794 448.387C70.0833 400.888 77.3214 340.61 110.436 281.491C143.546 222.38 202.492 164.505 279.439 121.906C356.386 79.3072 436.724 60.0735 504.395 63.3908C572.075 66.7085 627.002 92.5715 653.298 140.071Z" stroke="white"/>
</svg>
